<mxfile host="app.diagrams.net" modified="2020-08-30T02:54:00.758Z" agent="5.0 (Macintosh; Intel Mac OS X 10_15_6) AppleWebKit/537.36 (KHTML, like Gecko) Chrome/84.0.4147.135 Safari/537.36" etag="-aYqh6EIWKN8ZPD7GJyH" version="13.6.5" type="github">
  <diagram name="Page-1" id="38b20595-45e3-9b7f-d5ca-b57f44c5b66d">
    <mxGraphModel dx="1931" dy="997" grid="1" gridSize="10" guides="1" tooltips="1" connect="1" arrows="1" fold="1" page="1" pageScale="1" pageWidth="1169" pageHeight="827" background="#ffffff" math="0" shadow="0">
      <root>
        <mxCell id="0" />
        <mxCell id="1" parent="0" />
        <mxCell id="hN5Dp_MHmyaqK9XTyMVl-1" value="" style="verticalLabelPosition=bottom;html=1;verticalAlign=top;align=center;shape=mxgraph.floorplan.room;fillColor=#000000;" parent="1" vertex="1">
          <mxGeometry x="30" y="70" width="1060" height="900" as="geometry" />
        </mxCell>
        <mxCell id="hN5Dp_MHmyaqK9XTyMVl-4" value="" style="line;strokeWidth=4;html=1;perimeter=backbonePerimeter;points=[];outlineConnect=0;" parent="1" vertex="1">
          <mxGeometry x="65" y="900" width="1015" height="10" as="geometry" />
        </mxCell>
        <mxCell id="hN5Dp_MHmyaqK9XTyMVl-21" value="6 Meters&lt;br&gt;" style="shape=dimension;direction=west;whiteSpace=wrap;html=1;align=center;points=[];verticalAlign=top;spacingTop=-8;labelBackgroundColor=#ffffff" parent="1" vertex="1">
          <mxGeometry x="40" y="20" width="1040" height="30" as="geometry" />
        </mxCell>
        <mxCell id="hN5Dp_MHmyaqK9XTyMVl-24" value="5.4" style="shape=dimension;direction=north;whiteSpace=wrap;html=1;align=right;points=[];verticalAlign=middle;labelBackgroundColor=#ffffff" parent="1" vertex="1">
          <mxGeometry x="1100" y="40" width="40" height="930" as="geometry" />
        </mxCell>
        <mxCell id="hN5Dp_MHmyaqK9XTyMVl-25" value="0.3" style="shape=dimension;direction=south;whiteSpace=wrap;html=1;align=left;points=[];verticalAlign=middle;labelBackgroundColor=#ffffff" parent="1" vertex="1">
          <mxGeometry x="585" y="900" width="40" height="60" as="geometry" />
        </mxCell>
        <mxCell id="v9QVfu-xvExlx0HZBZCd-3" value="" style="line;strokeWidth=2;html=1;" parent="1" vertex="1">
          <mxGeometry x="120" y="280" width="850" height="10" as="geometry" />
        </mxCell>
        <mxCell id="v9QVfu-xvExlx0HZBZCd-5" value="" style="endArrow=classic;startArrow=classic;html=1;entryX=0.16;entryY=0.011;entryDx=0;entryDy=0;entryPerimeter=0;exitX=0.094;exitY=0.5;exitDx=0;exitDy=0;exitPerimeter=0;" parent="1" source="v9QVfu-xvExlx0HZBZCd-3" target="hN5Dp_MHmyaqK9XTyMVl-1" edge="1">
          <mxGeometry width="50" height="50" relative="1" as="geometry">
            <mxPoint x="200" y="210" as="sourcePoint" />
            <mxPoint x="250" y="160" as="targetPoint" />
          </mxGeometry>
        </mxCell>
        <mxCell id="v9QVfu-xvExlx0HZBZCd-6" value="1.5 M for Lemon Tree Etc&lt;br&gt;" style="edgeLabel;html=1;align=center;verticalAlign=middle;resizable=0;points=[];" parent="v9QVfu-xvExlx0HZBZCd-5" vertex="1" connectable="0">
          <mxGeometry x="0.0239" y="-2" relative="1" as="geometry">
            <mxPoint as="offset" />
          </mxGeometry>
        </mxCell>
        <mxCell id="v9QVfu-xvExlx0HZBZCd-7" value="" style="endArrow=none;html=1;entryX=0.992;entryY=0.324;entryDx=0;entryDy=0;entryPerimeter=0;exitX=0.098;exitY=0.5;exitDx=0;exitDy=0;exitPerimeter=0;" parent="1" source="v9QVfu-xvExlx0HZBZCd-9" target="hN5Dp_MHmyaqK9XTyMVl-1" edge="1">
          <mxGeometry width="50" height="50" relative="1" as="geometry">
            <mxPoint x="975" y="350" as="sourcePoint" />
            <mxPoint x="1025" y="300" as="targetPoint" />
          </mxGeometry>
        </mxCell>
        <mxCell id="v9QVfu-xvExlx0HZBZCd-11" value="1 M&lt;br&gt;" style="edgeLabel;html=1;align=center;verticalAlign=middle;resizable=0;points=[];" parent="v9QVfu-xvExlx0HZBZCd-7" vertex="1" connectable="0">
          <mxGeometry x="0.0482" y="-1" relative="1" as="geometry">
            <mxPoint as="offset" />
          </mxGeometry>
        </mxCell>
        <mxCell id="v9QVfu-xvExlx0HZBZCd-9" value="" style="line;strokeWidth=2;direction=south;html=1;" parent="1" vertex="1">
          <mxGeometry x="920" y="300" width="10" height="590" as="geometry" />
        </mxCell>
        <mxCell id="v9QVfu-xvExlx0HZBZCd-10" value="Rough Ground&lt;br&gt;and Tree&lt;br&gt;" style="text;html=1;align=center;verticalAlign=middle;resizable=0;points=[];autosize=1;" parent="1" vertex="1">
          <mxGeometry x="935" y="435" width="90" height="30" as="geometry" />
        </mxCell>
        <mxCell id="v9QVfu-xvExlx0HZBZCd-18" value="" style="shape=crossbar;whiteSpace=wrap;html=1;rounded=1;" parent="1" vertex="1">
          <mxGeometry x="400" y="465" width="160" height="20" as="geometry" />
        </mxCell>
        <mxCell id="v9QVfu-xvExlx0HZBZCd-19" value="1 Meter&lt;br&gt;" style="text;html=1;align=center;verticalAlign=middle;resizable=0;points=[];autosize=1;" parent="1" vertex="1">
          <mxGeometry x="460" y="460" width="60" height="20" as="geometry" />
        </mxCell>
        <mxCell id="v9QVfu-xvExlx0HZBZCd-20" value="0.8 Meter&lt;br&gt;" style="line;strokeWidth=2;direction=south;html=1;" parent="1" vertex="1">
          <mxGeometry x="390" y="530" width="10" height="160" as="geometry" />
        </mxCell>
        <mxCell id="v9QVfu-xvExlx0HZBZCd-21" value="0.8 Meter&lt;br&gt;" style="line;strokeWidth=2;direction=south;html=1;" parent="1" vertex="1">
          <mxGeometry x="555" y="820" width="10" height="80" as="geometry" />
        </mxCell>
        <mxCell id="DifFnbAbEvliVdXnUV2B-1" value="" style="rounded=0;whiteSpace=wrap;html=1;" vertex="1" parent="1">
          <mxGeometry x="360" y="360" width="480" height="320" as="geometry" />
        </mxCell>
        <mxCell id="DifFnbAbEvliVdXnUV2B-2" value="3 Meters" style="shape=dimension;whiteSpace=wrap;html=1;align=center;points=[];verticalAlign=bottom;spacingBottom=-5;labelBackgroundColor=#ffffff" vertex="1" parent="1">
          <mxGeometry x="360" y="320" width="480" height="40" as="geometry" />
        </mxCell>
        <mxCell id="DifFnbAbEvliVdXnUV2B-4" value="2 Meters" style="shape=dimension;direction=south;whiteSpace=wrap;html=1;align=left;points=[];verticalAlign=middle;labelBackgroundColor=#ffffff" vertex="1" parent="1">
          <mxGeometry x="360" y="360" width="40" height="320" as="geometry" />
        </mxCell>
        <mxCell id="DifFnbAbEvliVdXnUV2B-5" value="126cm x 50 cm x 2 Shelves" style="verticalLabelPosition=bottom;verticalAlign=top;html=1;shape=mxgraph.basic.rect;fillColor2=none;strokeWidth=1;size=20;indent=5;fillColor=#d5e8d4;strokeColor=#82b366;" vertex="1" parent="1">
          <mxGeometry x="470" y="580" width="240" height="60" as="geometry" />
        </mxCell>
        <mxCell id="DifFnbAbEvliVdXnUV2B-7" value="126cm x 50 cm x 2 Shelves" style="verticalLabelPosition=bottom;verticalAlign=top;html=1;shape=mxgraph.basic.rect;fillColor2=none;strokeWidth=1;size=20;indent=5;fillColor=#d5e8d4;strokeColor=#82b366;" vertex="1" parent="1">
          <mxGeometry x="471" y="375" width="240" height="60" as="geometry" />
        </mxCell>
        <mxCell id="DifFnbAbEvliVdXnUV2B-8" value="Tomato Bags" style="whiteSpace=wrap;html=1;aspect=fixed;fillColor=#ffe6cc;strokeColor=#d79b00;" vertex="1" parent="1">
          <mxGeometry x="840" y="560" width="80" height="80" as="geometry" />
        </mxCell>
        <mxCell id="DifFnbAbEvliVdXnUV2B-9" value="Tomato Bags" style="whiteSpace=wrap;html=1;aspect=fixed;fillColor=#ffe6cc;strokeColor=#d79b00;" vertex="1" parent="1">
          <mxGeometry x="840" y="470" width="80" height="80" as="geometry" />
        </mxCell>
        <mxCell id="DifFnbAbEvliVdXnUV2B-10" value="Tomato Bags" style="whiteSpace=wrap;html=1;aspect=fixed;fillColor=#ffe6cc;strokeColor=#d79b00;" vertex="1" parent="1">
          <mxGeometry x="840" y="385" width="80" height="80" as="geometry" />
        </mxCell>
        <mxCell id="DifFnbAbEvliVdXnUV2B-11" value="32 Cm Pots" style="ellipse;whiteSpace=wrap;html=1;aspect=fixed;" vertex="1" parent="1">
          <mxGeometry x="495" y="710" width="60" height="60" as="geometry" />
        </mxCell>
        <mxCell id="DifFnbAbEvliVdXnUV2B-12" value="32 Cm Pots" style="ellipse;whiteSpace=wrap;html=1;aspect=fixed;" vertex="1" parent="1">
          <mxGeometry x="565" y="710" width="60" height="60" as="geometry" />
        </mxCell>
        <mxCell id="DifFnbAbEvliVdXnUV2B-13" value="32 Cm Pots" style="ellipse;whiteSpace=wrap;html=1;aspect=fixed;" vertex="1" parent="1">
          <mxGeometry x="640" y="710" width="60" height="60" as="geometry" />
        </mxCell>
        <mxCell id="DifFnbAbEvliVdXnUV2B-14" value="32 Cm Pots" style="ellipse;whiteSpace=wrap;html=1;aspect=fixed;" vertex="1" parent="1">
          <mxGeometry x="710" y="700" width="60" height="60" as="geometry" />
        </mxCell>
        <mxCell id="DifFnbAbEvliVdXnUV2B-15" value="32 Cm Pots" style="ellipse;whiteSpace=wrap;html=1;aspect=fixed;" vertex="1" parent="1">
          <mxGeometry x="780" y="700" width="60" height="60" as="geometry" />
        </mxCell>
        <mxCell id="DifFnbAbEvliVdXnUV2B-16" value="32 Cm Pots" style="ellipse;whiteSpace=wrap;html=1;aspect=fixed;" vertex="1" parent="1">
          <mxGeometry x="360" y="700" width="60" height="60" as="geometry" />
        </mxCell>
        <mxCell id="DifFnbAbEvliVdXnUV2B-17" value="32 Cm Pots" style="ellipse;whiteSpace=wrap;html=1;aspect=fixed;" vertex="1" parent="1">
          <mxGeometry x="430" y="700" width="60" height="60" as="geometry" />
        </mxCell>
        <mxCell id="DifFnbAbEvliVdXnUV2B-18" value="Fencing or Bamboo 3M x 2M x 2M&lt;br&gt;" style="verticalLabelPosition=bottom;html=1;verticalAlign=top;align=center;shape=mxgraph.floorplan.wall;fillColor=#000000;" vertex="1" parent="1">
          <mxGeometry x="360" y="680" width="480" height="10" as="geometry" />
        </mxCell>
        <mxCell id="DifFnbAbEvliVdXnUV2B-19" value="32 Cm Pots" style="ellipse;whiteSpace=wrap;html=1;aspect=fixed;" vertex="1" parent="1">
          <mxGeometry x="780" y="840" width="60" height="60" as="geometry" />
        </mxCell>
        <mxCell id="DifFnbAbEvliVdXnUV2B-20" value="32 Cm Pots" style="ellipse;whiteSpace=wrap;html=1;aspect=fixed;" vertex="1" parent="1">
          <mxGeometry x="711" y="840" width="60" height="60" as="geometry" />
        </mxCell>
        <mxCell id="DifFnbAbEvliVdXnUV2B-21" value="32 Cm Pots" style="ellipse;whiteSpace=wrap;html=1;aspect=fixed;" vertex="1" parent="1">
          <mxGeometry x="640" y="840" width="60" height="60" as="geometry" />
        </mxCell>
        <mxCell id="DifFnbAbEvliVdXnUV2B-22" value="32 Cm Pots" style="ellipse;whiteSpace=wrap;html=1;aspect=fixed;" vertex="1" parent="1">
          <mxGeometry x="570" y="840" width="60" height="60" as="geometry" />
        </mxCell>
        <mxCell id="DifFnbAbEvliVdXnUV2B-23" value="32 Cm Pots" style="ellipse;whiteSpace=wrap;html=1;aspect=fixed;" vertex="1" parent="1">
          <mxGeometry x="500" y="840" width="60" height="60" as="geometry" />
        </mxCell>
        <mxCell id="DifFnbAbEvliVdXnUV2B-24" value="32 Cm Pots" style="ellipse;whiteSpace=wrap;html=1;aspect=fixed;" vertex="1" parent="1">
          <mxGeometry x="430" y="840" width="60" height="60" as="geometry" />
        </mxCell>
        <mxCell id="DifFnbAbEvliVdXnUV2B-25" value="32 Cm Pots" style="ellipse;whiteSpace=wrap;html=1;aspect=fixed;" vertex="1" parent="1">
          <mxGeometry x="360" y="840" width="60" height="60" as="geometry" />
        </mxCell>
        <mxCell id="DifFnbAbEvliVdXnUV2B-26" value="Label" style="shape=dimension;direction=north;whiteSpace=wrap;html=1;align=right;points=[];verticalAlign=middle;labelBackgroundColor=#ffffff" vertex="1" parent="1">
          <mxGeometry x="130" y="540" width="40" height="100" as="geometry" />
        </mxCell>
        <mxCell id="DifFnbAbEvliVdXnUV2B-27" value="3.75 Meters&amp;nbsp;" style="endArrow=classic;startArrow=classic;html=1;entryX=0.16;entryY=0.011;entryDx=0;entryDy=0;entryPerimeter=0;" edge="1" parent="1" source="hN5Dp_MHmyaqK9XTyMVl-1">
          <mxGeometry width="50" height="50" relative="1" as="geometry">
            <mxPoint x="200.3000000000001" y="485.1" as="sourcePoint" />
            <mxPoint x="199.99999999999991" y="280.0000000000001" as="targetPoint" />
            <Array as="points">
              <mxPoint x="200" y="900" />
            </Array>
          </mxGeometry>
        </mxCell>
        <mxCell id="DifFnbAbEvliVdXnUV2B-29" value="" style="verticalLabelPosition=bottom;html=1;verticalAlign=top;align=center;shape=mxgraph.floorplan.doorBifold;dx=0.3;" vertex="1" parent="1">
          <mxGeometry x="870" y="540" width="160" height="40" as="geometry" />
        </mxCell>
        <mxCell id="DifFnbAbEvliVdXnUV2B-30" value="1.5 Meters&amp;nbsp;" style="endArrow=classic;startArrow=classic;html=1;" edge="1" parent="1" source="hN5Dp_MHmyaqK9XTyMVl-4">
          <mxGeometry width="50" height="50" relative="1" as="geometry">
            <mxPoint x="230" y="730" as="sourcePoint" />
            <mxPoint x="280" y="680" as="targetPoint" />
          </mxGeometry>
        </mxCell>
        <mxCell id="DifFnbAbEvliVdXnUV2B-32" value="32 Cm Pots" style="ellipse;whiteSpace=wrap;html=1;aspect=fixed;" vertex="1" parent="1">
          <mxGeometry x="380" y="610" width="60" height="60" as="geometry" />
        </mxCell>
        <mxCell id="DifFnbAbEvliVdXnUV2B-33" value="32 Cm Pots" style="ellipse;whiteSpace=wrap;html=1;aspect=fixed;" vertex="1" parent="1">
          <mxGeometry x="370" y="375" width="60" height="60" as="geometry" />
        </mxCell>
        <mxCell id="DifFnbAbEvliVdXnUV2B-34" value="32 Cm Pots" style="ellipse;whiteSpace=wrap;html=1;aspect=fixed;" vertex="1" parent="1">
          <mxGeometry x="750" y="375" width="60" height="60" as="geometry" />
        </mxCell>
        <mxCell id="DifFnbAbEvliVdXnUV2B-35" value="32 Cm Pots" style="ellipse;whiteSpace=wrap;html=1;aspect=fixed;" vertex="1" parent="1">
          <mxGeometry x="760" y="600" width="60" height="60" as="geometry" />
        </mxCell>
      </root>
    </mxGraphModel>
  </diagram>
</mxfile>
